<?xml version="1.0" standalone="no"?>
<!DOCTYPE svg PUBLIC "-//W3C//DTD SVG 20010904//EN"
 "http://www.w3.org/TR/2001/REC-SVG-20010904/DTD/svg10.dtd">
<svg version="1.0" xmlns="http://www.w3.org/2000/svg"
 width="400.000000pt" height="400.000000pt" viewBox="0 0 400.000000 400.000000"
 preserveAspectRatio="xMidYMid meet">
<metadata>
Created by potrace 1.14, written by Peter Selinger 2001-2017
</metadata>
<g transform="translate(0.000000,400.000000) scale(0.100000,-0.100000)"
fill="#000000" stroke="none">
<path d="M824 2725 c-27 -47 -40 -51 -129 -46 -16 1 -84 -106 -356 -566 -185
-313 -334 -571 -332 -575 2 -5 355 -8 784 -8 428 0 779 -2 779 -4 0 -2 -36
-65 -80 -139 -44 -75 -83 -143 -86 -151 -6 -15 93 -16 1039 -16 l1045 0 22 35
c19 31 27 35 63 35 41 0 43 2 79 63 20 34 71 121 114 192 42 72 85 144 94 160
9 17 36 60 58 98 23 37 42 70 42 73 0 3 9 17 20 31 11 14 20 28 20 32 0 3
-110 6 -245 5 -135 -1 -245 1 -245 4 0 4 83 146 273 467 7 11 27 43 44 72 18
30 33 56 33 58 0 3 22 40 48 83 27 42 57 92 66 110 l17 32 -1570 0 -1570 0
-27 -45z"/>
</g>
</svg>
